<?xml version="1.0" standalone="no"?>
<!DOCTYPE svg PUBLIC "-//W3C//DTD SVG 20010904//EN"
 "http://www.w3.org/TR/2001/REC-SVG-20010904/DTD/svg10.dtd">
<svg version="1.0" xmlns="http://www.w3.org/2000/svg"
 width="940.000000pt" height="788.000000pt" viewBox="0 0 940.000000 788.000000"
 preserveAspectRatio="xMidYMid meet">
<metadata>
Created by potrace 1.16, written by Peter Selinger 2001-2019
</metadata>
<g transform="translate(0.000000,788.000000) scale(0.100000,-0.100000)"
fill="#000000" stroke="none">
<path d="M4562 6916 c-46 -35 -83 -68 -81 -72 1 -5 88 -98 194 -206 l192 -198
141 108 c77 59 183 138 236 176 53 39 96 73 96 76 0 13 -57 60 -72 60 -9 0
-26 14 -38 30 -24 33 -68 60 -99 60 -11 0 -56 -16 -100 -35 -43 -19 -93 -35
-110 -35 -17 0 -85 23 -152 50 -67 28 -122 50 -123 50 0 0 -38 -29 -84 -64z"/>
<path d="M4036 6910 c-16 -5 -41 -20 -55 -33 -52 -49 -68 -52 -123 -23 -27 14
-63 26 -78 26 -32 0 -82 -20 -78 -30 2 -4 68 -75 148 -158 l146 -151 172 124
c95 68 169 125 164 127 -4 1 -17 21 -28 43 -31 59 -82 85 -169 84 -38 0 -83
-5 -99 -9z"/>
<path d="M5442 6833 l-53 -37 183 -176 c101 -97 205 -196 231 -220 l48 -44 32
19 c25 15 186 125 206 142 3 2 -8 17 -24 33 -38 39 -85 54 -149 45 -102 -13
-111 -12 -112 12 -1 13 -7 30 -14 38 -7 9 -14 37 -14 63 -1 43 -4 48 -36 64
-20 10 -58 18 -88 18 -66 0 -113 19 -131 53 -8 15 -17 27 -20 26 -3 0 -30 -17
-59 -36z"/>
<path d="M3631 6793 c-19 -23 -34 -57 -42 -92 -22 -114 -56 -149 -115 -122
-39 17 -111 13 -155 -10 -22 -11 -39 -24 -37 -28 7 -19 264 -320 273 -320 13
-1 399 286 403 299 2 6 -53 68 -123 139 -70 71 -133 138 -141 150 -20 29 -28
27 -63 -16z"/>
<path d="M4238 6669 c-111 -83 -203 -155 -203 -160 0 -11 375 -406 386 -408 4
-1 52 34 107 77 55 42 143 110 196 151 53 41 101 80 106 86 6 7 -58 77 -190
208 l-198 197 -204 -151z"/>
<path d="M5223 6678 c-185 -133 -333 -247 -333 -257 0 -4 97 -103 215 -220
l214 -212 178 122 c98 67 213 144 255 173 43 28 76 54 75 58 -1 3 -47 45 -102
93 -55 48 -159 143 -232 211 -72 68 -134 124 -136 124 -3 0 -63 -42 -134 -92z"/>
<path d="M3243 6495 c-3 -9 -3 -31 0 -50 6 -37 5 -38 -68 -50 -34 -5 -44 -2
-60 14 -10 12 -21 21 -25 21 -4 0 -45 -29 -92 -64 -83 -63 -84 -64 -80 -102
l5 -37 -28 21 -27 21 -34 -25 c-19 -15 -34 -28 -34 -31 0 -3 53 -68 118 -146
65 -78 131 -159 147 -179 l29 -37 50 41 c28 22 129 101 223 176 l173 135 -33
36 c-17 20 -79 89 -136 154 -56 64 -107 117 -112 117 -5 0 -12 -7 -16 -15z"/>
<path d="M3794 6340 c-110 -83 -200 -154 -202 -158 -2 -8 161 -192 298 -335
l87 -91 114 87 c63 48 160 122 216 165 l103 77 -203 203 c-111 111 -205 202
-208 202 -4 0 -96 -68 -205 -150z"/>
<path d="M6020 6428 c-41 -28 -90 -62 -107 -75 l-33 -24 143 -126 c78 -70 181
-162 229 -206 l87 -79 178 157 c98 86 179 161 181 165 2 5 -16 23 -39 39 -59
43 -107 42 -179 -3 -30 -19 -56 -33 -58 -31 -2 1 2 30 9 63 16 78 5 106 -54
132 -62 29 -100 26 -142 -12 -34 -29 -39 -31 -83 -22 -45 9 -47 10 -46 42 1
17 -1 32 -5 32 -3 0 -40 -23 -81 -52z"/>
<path d="M4645 6245 c-110 -85 -201 -157 -202 -162 -2 -4 90 -101 204 -215
l208 -208 223 159 c123 87 224 162 224 166 -1 12 -433 415 -445 414 -7 0 -102
-69 -212 -154z"/>
<path d="M5597 6144 c-136 -91 -247 -169 -247 -174 0 -11 469 -464 483 -468
11 -2 278 218 433 356 l59 53 -55 51 c-122 111 -402 348 -413 348 -7 0 -123
-75 -260 -166z"/>
<path d="M2704 6149 c-115 -86 -123 -96 -113 -132 8 -27 4 -36 -27 -74 -47
-58 -68 -68 -96 -48 -32 22 -53 19 -89 -13 -23 -21 -32 -39 -36 -73 -5 -43 -2
-49 93 -190 147 -217 139 -207 161 -188 66 58 433 368 457 386 15 13 26 28 23
35 -5 15 -266 316 -289 335 -13 11 -26 4 -84 -38z"/>
<path d="M6611 6099 c-63 -55 -141 -124 -175 -155 l-61 -54 85 -82 c126 -122
271 -260 302 -287 l27 -23 89 75 c87 74 89 77 110 149 27 88 22 127 -20 169
-34 33 -58 36 -94 12 -25 -16 -26 -15 -74 32 l-50 49 6 66 c6 62 -6 133 -24
144 -4 2 -58 -41 -121 -95z"/>
<path d="M3350 5999 c-118 -93 -216 -174 -218 -179 -2 -5 71 -103 162 -217 91
-115 171 -216 178 -225 12 -16 23 -10 118 68 58 47 162 130 232 185 70 55 130
105 133 110 5 7 -380 431 -389 429 0 -1 -98 -77 -216 -171z"/>
<path d="M4360 6027 c-30 -23 -120 -92 -199 -152 -78 -61 -150 -115 -158 -122
-13 -10 -13 -14 -2 -26 8 -8 79 -81 158 -161 l145 -146 106 0 107 0 144 101
c79 56 153 110 164 120 20 20 19 21 -188 224 -114 113 -211 205 -215 205 -4
-1 -32 -20 -62 -43z"/>
<path d="M5115 5814 c-116 -80 -217 -153 -225 -160 -13 -13 -1 -28 100 -128
l115 -113 68 -7 c90 -9 241 -40 349 -73 85 -25 87 -25 112 -7 65 50 185 150
186 155 0 8 -474 471 -488 477 -4 1 -102 -64 -217 -144z"/>
<path d="M6124 5675 c-126 -108 -233 -201 -237 -208 -6 -8 21 -41 85 -103 155
-151 299 -284 306 -284 4 0 43 31 88 68 45 37 154 127 243 201 88 73 161 137
161 141 0 5 -22 28 -49 52 -27 24 -116 107 -199 186 -83 78 -155 142 -160 142
-5 0 -113 -88 -238 -195z"/>
<path d="M2924 5659 c-223 -181 -318 -260 -322 -269 -6 -15 332 -465 349 -465
13 0 518 417 518 428 1 7 -309 405 -349 450 -4 5 -92 -61 -196 -144z"/>
<path d="M3874 5654 c-54 -43 -155 -123 -224 -178 -68 -56 -131 -106 -139
-112 -16 -13 -10 -26 41 -87 l23 -28 110 42 c166 63 313 96 548 125 l48 5
-147 152 c-81 84 -150 153 -154 155 -4 1 -52 -32 -106 -74z"/>
<path d="M2370 5639 c0 -55 -23 -79 -76 -79 -60 0 -78 -11 -98 -60 -22 -55
-20 -117 5 -164 l21 -39 -22 -60 c-21 -58 -22 -60 -4 -93 10 -19 20 -34 23
-34 2 0 29 21 59 48 30 26 105 89 166 141 61 51 112 97 114 102 3 8 -67 110
-155 228 l-33 44 0 -34z"/>
<path d="M4714 5534 c-76 -53 -142 -99 -146 -103 -4 -3 107 -6 247 -6 l254 -1
-27 30 c-75 81 -172 176 -180 176 -4 0 -71 -43 -148 -96z"/>
<path d="M6897 5534 l-79 -66 178 -172 c97 -94 180 -172 185 -174 10 -4 -7 56
-32 115 -22 52 -24 81 -4 106 34 46 26 147 -16 201 -17 22 -29 26 -69 26 -30
0 -52 5 -60 15 -7 8 -15 15 -19 15 -3 0 -41 -30 -84 -66z"/>
<path d="M6770 5429 c-19 -17 -131 -107 -247 -201 -117 -94 -213 -174 -213
-178 0 -9 516 -494 530 -498 12 -4 240 184 240 198 0 4 -11 22 -25 38 -43 52
-28 99 61 193 87 93 87 92 -57 233 -69 66 -154 149 -189 183 l-65 62 -35 -30z"/>
<path d="M5765 5373 c-49 -42 -91 -79 -92 -82 -1 -3 54 -33 123 -65 69 -33
129 -67 134 -76 9 -17 10 -26 31 -212 7 -60 14 -108 16 -108 8 0 283 232 283
239 0 6 -396 381 -402 381 -2 -1 -43 -35 -93 -77z"/>
<path d="M2535 5338 c-104 -83 -295 -251 -295 -259 0 -5 28 -57 63 -116 35
-60 101 -172 146 -251 73 -126 85 -141 99 -130 19 15 373 307 386 319 5 4 -18
40 -51 81 -33 40 -114 146 -179 234 l-120 161 -49 -39z"/>
<path d="M3414 5283 c-316 -259 -453 -377 -447 -387 11 -19 314 -384 329 -397
16 -13 32 -4 101 58 l43 38 31 300 31 300 29 25 30 25 -37 48 c-20 26 -37 47
-38 47 -1 0 -33 -26 -72 -57z"/>
<path d="M6164 4942 c-66 -53 -135 -110 -154 -125 l-33 -28 12 -102 c24 -204
12 -184 201 -372 l167 -167 115 93 c63 52 157 128 208 169 52 41 107 86 123
100 l29 26 -266 249 c-146 138 -269 251 -273 252 -5 1 -62 -41 -129 -95z"/>
<path d="M2751 4732 c-101 -86 -189 -164 -194 -173 -8 -13 19 -67 129 -253 87
-149 143 -235 151 -232 7 3 114 94 237 202 l225 197 -55 66 c-31 36 -108 129
-171 206 -64 77 -121 141 -127 142 -6 1 -94 -69 -195 -155z"/>
<path d="M2306 4809 c-9 -19 -25 -46 -37 -60 -32 -40 -35 -105 -10 -186 22
-73 59 -144 77 -150 13 -4 154 113 154 128 0 5 -38 74 -84 155 l-85 146 -15
-33z"/>
<path d="M6983 4608 l-112 -92 57 -52 c31 -29 60 -53 64 -54 18 -1 60 61 78
115 25 76 39 150 31 164 -4 6 -55 -29 -118 -81z"/>
<path d="M2439 4461 c-72 -65 -119 -146 -119 -206 0 -60 27 -106 114 -195 75
-76 86 -92 101 -148 10 -35 24 -66 31 -69 12 -4 214 166 222 186 2 7 -260 463
-277 483 -4 4 -36 -19 -72 -51z"/>
<path d="M6649 4340 c-118 -95 -225 -183 -238 -195 l-24 -23 109 -104 c199
-190 231 -218 242 -218 23 0 60 69 77 143 3 17 41 66 90 118 46 48 92 103 101
121 41 79 8 181 -89 276 l-54 53 -214 -171z"/>
<path d="M3209 4379 c-52 -45 -125 -109 -164 -144 -38 -34 -100 -89 -138 -121
-46 -39 -66 -63 -62 -74 3 -8 33 -61 67 -117 58 -97 78 -116 78 -73 0 49 54
241 83 295 32 59 33 61 147 116 63 31 124 69 137 84 l23 26 -20 27 c-36 49
-47 62 -52 62 -3 0 -47 -37 -99 -81z"/>
<path d="M5432 4220 c2 -5 47 -57 101 -115 l98 -105 49 0 c30 0 112 -19 212
-49 97 -30 167 -46 172 -41 9 9 -50 81 -160 196 -66 68 -101 83 -248 109 -101
17 -229 20 -224 5z"/>
<path d="M5303 4204 c-35 -7 -75 -20 -90 -28 -36 -19 -163 -124 -163 -135 0
-4 9 -16 21 -27 26 -23 141 -28 376 -17 l163 8 -101 108 c-110 117 -103 114
-206 91z"/>
<path d="M3676 4175 c-38 -8 -74 -19 -79 -24 -5 -5 17 -42 59 -95 66 -82 71
-86 110 -86 36 0 59 13 179 97 137 95 138 97 110 106 -55 16 -305 18 -379 2z"/>
<path d="M4022 4063 c-67 -47 -120 -88 -118 -91 7 -6 323 -31 344 -27 65 13
71 16 79 42 6 16 6 46 0 74 l-9 47 -48 0 c-30 1 -60 8 -81 21 -19 12 -36 21
-39 21 -3 -1 -60 -40 -128 -87z"/>
<path d="M3514 4108 c-45 -31 -228 -227 -219 -236 2 -2 39 7 82 21 121 39 192
58 265 71 l67 11 -66 80 c-35 44 -68 81 -72 83 -4 1 -30 -12 -57 -30z"/>
<path d="M6347 4092 c-16 -17 -16 -26 -2 -118 9 -54 20 -182 25 -284 6 -102
13 -186 17 -187 5 -2 6 -51 3 -110 -3 -60 -4 -110 -3 -112 2 -3 10 2 17 10 10
9 18 57 25 138 l10 123 69 77 c80 88 103 97 128 50 13 -26 16 -51 12 -121 -3
-48 -2 -88 2 -88 4 0 15 9 25 19 13 15 18 39 19 98 1 66 -3 84 -22 115 -13 20
-32 40 -43 43 -32 10 -11 25 36 25 24 0 46 4 49 9 3 5 -29 42 -71 82 -43 41
-119 113 -168 162 -50 48 -96 87 -102 87 -5 0 -17 -8 -26 -18z"/>
<path d="M2740 3967 c-25 -23 -71 -65 -103 -94 -52 -47 -56 -54 -45 -72 15
-25 61 -45 87 -38 35 9 46 -8 25 -40 -16 -23 -19 -44 -17 -118 2 -78 18 -242
39 -397 6 -44 24 -63 38 -40 3 5 -3 83 -14 173 -30 265 -34 324 -21 347 7 12
15 22 20 22 4 0 45 -41 91 -91 l83 -91 6 -108 c6 -102 7 -108 24 -95 17 12 18
24 10 142 -4 70 -5 160 0 198 l7 71 -80 134 c-45 74 -87 136 -93 137 -7 2 -32
-16 -57 -40z"/>
<path d="M5500 3810 c-74 -13 -157 -49 -210 -91 -28 -22 -50 -41 -50 -44 0 -2
37 14 82 37 113 56 215 75 318 60 42 -6 103 -20 135 -31 55 -19 75 -20 75 -2
0 13 -96 51 -169 67 -72 15 -112 16 -181 4z"/>
<path d="M3660 3761 c-31 -10 -83 -32 -116 -50 -62 -33 -138 -90 -131 -98 2
-2 31 12 63 31 115 68 289 115 371 100 33 -6 35 -6 24 15 -10 19 -20 21 -84
20 -40 0 -97 -8 -127 -18z"/>
<path d="M5500 3686 c-121 -22 -219 -82 -281 -173 -38 -55 -33 -61 61 -91 98
-31 123 -34 144 -19 17 12 9 16 -80 36 -54 13 -103 27 -108 31 -14 13 89 109
146 135 29 13 54 22 56 20 2 -2 -1 -20 -8 -40 -14 -43 -8 -105 12 -134 14 -20
16 -20 77 25 59 45 61 47 45 65 -16 18 -16 20 1 39 17 18 19 19 45 3 27 -16
29 -15 90 32 34 26 58 51 53 56 -9 9 -126 29 -163 28 -14 -1 -54 -6 -90 -13z"/>
<path d="M3666 3649 c-68 -16 -179 -76 -216 -114 l-35 -37 35 -30 c96 -83 271
-134 422 -123 98 6 238 39 253 58 6 7 18 11 28 9 10 -2 25 -1 33 2 35 13 -68
142 -144 181 -19 9 -36 14 -39 12 -3 -3 29 -39 71 -80 42 -40 76 -79 76 -85 0
-6 -10 -14 -22 -17 -73 -16 -156 -35 -176 -41 l-23 -7 20 34 c25 40 27 112 6
149 -21 37 -18 40 20 24 l36 -15 -18 27 c-9 15 -33 34 -53 42 -42 18 -218 25
-274 11z m-5 -98 c-26 -50 -26 -67 0 -115 11 -21 18 -40 16 -42 -5 -6 -168 64
-182 78 -14 14 47 64 120 98 33 16 61 27 63 25 2 -2 -6 -21 -17 -44z"/>
<path d="M5778 3636 c-25 -18 -23 -23 15 -41 19 -9 50 -33 71 -54 l37 -37 -96
-41 c-96 -42 -107 -41 -80 7 16 28 19 88 6 108 -6 11 -40 -10 -139 -85 -72
-54 -131 -101 -131 -105 -2 -15 200 -8 263 8 73 19 168 64 216 104 l35 28 -20
23 c-24 26 -133 99 -149 99 -6 0 -19 -7 -28 -14z"/>
<path d="M2955 3267 c-17 -13 -17 -25 -2 -278 8 -145 13 -267 10 -271 -2 -5
-17 -8 -34 -8 -22 0 -35 9 -59 42 -38 52 -54 107 -75 250 -9 62 -18 114 -19
116 -2 1 -10 -6 -18 -15 -14 -16 -14 -29 3 -128 24 -138 51 -222 88 -265 22
-27 37 -35 76 -39 l48 -6 31 -114 c32 -114 43 -133 64 -108 8 9 6 32 -8 87
-46 175 -61 285 -70 514 -5 126 -11 230 -13 232 -2 2 -12 -2 -22 -9z"/>
<path d="M6375 3163 c-16 -170 -38 -367 -51 -467 -8 -61 -14 -112 -14 -114 0
-12 43 35 51 56 5 12 16 22 25 22 9 0 52 30 96 67 89 74 110 109 129 219 10
57 9 68 -5 82 -8 9 -17 14 -19 11 -1 -2 -10 -41 -19 -87 -20 -100 -48 -161
-99 -214 -29 -31 -43 -39 -66 -36 -23 2 -28 7 -26 28 1 14 9 125 19 246 9 122
14 229 11 238 -13 34 -26 14 -32 -51z"/>
<path d="M4265 2470 c-3 -5 9 -19 27 -30 27 -17 44 -20 92 -16 43 3 72 -1 105
-13 74 -29 138 -33 237 -14 49 9 109 16 134 15 l45 -1 -29 25 c-19 17 -36 24
-50 20 -12 -3 -59 -13 -105 -21 -88 -16 -135 -13 -215 12 -32 10 -67 14 -104
10 -37 -4 -67 -1 -90 9 -41 17 -39 17 -47 4z"/>
<path d="M3060 2415 c-11 -13 -5 -46 35 -193 53 -194 132 -370 200 -449 31
-37 39 -41 56 -32 18 9 16 15 -36 77 -81 96 -116 179 -176 410 -29 111 -56
202 -60 202 -4 0 -12 -7 -19 -15z"/>
<path d="M6165 2083 c-57 -98 -185 -252 -357 -429 -84 -87 -117 -126 -112
-138 3 -9 10 -16 14 -16 14 0 361 377 420 455 89 120 131 216 93 215 -4 0 -30
-39 -58 -87z"/>
<path d="M4283 2051 c-62 -10 -115 -19 -117 -22 -3 -2 -1 -10 3 -17 6 -11 33
-9 135 7 153 25 208 26 274 5 50 -16 82 -14 82 6 0 5 -10 10 -22 10 -13 0 -41
7 -63 15 -52 18 -152 17 -292 -4z"/>
<path d="M4875 2066 c-5 -2 -45 -12 -87 -21 -42 -9 -85 -23 -95 -31 -16 -12
-15 -13 13 -14 17 0 53 6 80 14 90 26 145 27 302 7 85 -11 157 -20 160 -19 4
0 21 -3 39 -7 22 -5 32 -13 30 -24 -3 -27 17 -26 33 3 13 22 13 28 1 35 -24
15 -95 23 -99 11 -3 -8 -10 -6 -21 3 -21 20 -322 55 -356 43z"/>
<path d="M4020 2013 c-19 -2 -39 -8 -43 -12 -10 -10 282 -273 297 -268 23 8 8
26 -84 102 -52 44 -101 85 -108 92 -7 7 -23 19 -34 28 -28 19 -20 26 37 33 27
3 44 9 42 16 -4 12 -51 16 -107 9z"/>
<path d="M5260 1909 c-52 -65 -174 -156 -273 -203 -154 -74 -302 -98 -442 -73
-44 8 -88 18 -99 23 -18 7 -18 6 -2 -19 36 -54 224 -60 414 -12 138 35 256
102 364 204 48 46 88 89 88 97 0 28 -18 22 -50 -17z"/>
<path d="M4995 1915 c-60 -7 -139 -18 -175 -25 -36 -7 -119 -13 -185 -12 -81
0 -125 -4 -138 -13 -17 -12 -17 -13 5 -19 13 -3 66 -9 120 -13 77 -5 114 -2
190 15 51 11 120 23 153 26 60 5 152 31 170 47 11 11 5 10 -140 -6z"/>
<path d="M3370 1725 c-11 -13 -7 -22 26 -56 52 -54 217 -191 315 -261 71 -50
109 -64 109 -38 0 4 -61 53 -135 110 -75 56 -173 138 -219 181 -73 69 -85 77
-96 64z"/>
<path d="M5591 1439 c-91 -86 -214 -186 -301 -243 -115 -76 -210 -119 -377
-171 -17 -6 -5 -35 14 -35 28 0 169 52 248 92 132 66 300 190 455 335 46 43
71 74 66 81 -13 22 -30 12 -105 -59z"/>
<path d="M3836 1344 c-17 -12 -11 -18 67 -68 163 -105 386 -236 435 -255 43
-17 52 -18 68 -6 18 13 18 14 -1 21 -11 4 -35 13 -53 20 -40 16 -327 187 -427
255 -62 41 -73 45 -89 33z"/>
<path d="M4451 1007 c-17 -21 -8 -24 95 -38 91 -12 271 -7 314 9 48 18 -6 27
-170 28 -91 0 -179 4 -196 8 -22 6 -34 4 -43 -7z"/>
</g>
</svg>
